<?xml version="1.0" encoding="UTF-8" standalone="no"?><!DOCTYPE svg PUBLIC "-//W3C//DTD SVG 1.1//EN" "http://www.w3.org/Graphics/SVG/1.1/DTD/svg11.dtd"><svg width="100%" height="100%" viewBox="0 0 389 91" version="1.1" xmlns="http://www.w3.org/2000/svg" xmlns:xlink="http://www.w3.org/1999/xlink" xml:space="preserve" xmlns:serif="http://www.serif.com/" style="fill-rule:evenodd;clip-rule:evenodd;stroke-linejoin:round;stroke-miterlimit:2;"><rect x="11" y="13" width="7.7" height="62.792" style="fill:#fff;fill-rule:nonzero;"/><path d="M61.233,75.792l0,-29.517c0,-1.528 -0.076,-2.918 -0.229,-4.171c-0.153,-1.253 -0.489,-2.322 -1.008,-3.208c-0.52,-0.886 -1.299,-1.559 -2.338,-2.017c-1.039,-0.458 -2.444,-0.687 -4.216,-0.687c-2.139,-0 -4.461,0.458 -6.967,1.375c-2.506,0.916 -4.736,1.925 -6.692,3.025l0,35.2l-7.516,-0l-0,-44.734l7.333,0l0.092,3.85l0.275,0.184c2.505,-1.589 5.194,-2.827 8.066,-3.713c2.873,-0.886 5.378,-1.329 7.517,-1.329c3.056,-0 5.454,0.443 7.196,1.329c1.741,0.886 3.055,2.017 3.941,3.392c0.887,1.375 1.437,2.918 1.65,4.629c0.214,1.711 0.321,3.392 0.321,5.042l0,31.35l-7.425,-0Z" style="fill:#fff;fill-rule:nonzero;"/><path d="M108.35,75.792l-0,-29.517c-0,-1.528 -0.076,-2.918 -0.229,-4.171c-0.153,-1.253 -0.489,-2.322 -1.009,-3.208c-0.519,-0.886 -1.298,-1.559 -2.337,-2.017c-1.039,-0.458 -2.444,-0.687 -4.217,-0.687c-2.139,-0 -4.461,0.458 -6.966,1.375c-2.506,0.916 -4.736,1.925 -6.692,3.025l0,35.2l-7.517,-0l0,-44.734l7.334,0l0.091,3.85l0.275,0.184c2.506,-1.589 5.195,-2.827 8.067,-3.713c2.872,-0.886 5.378,-1.329 7.517,-1.329c3.055,-0 5.454,0.443 7.195,1.329c1.742,0.886 3.056,2.017 3.942,3.392c0.886,1.375 1.436,2.918 1.65,4.629c0.214,1.711 0.321,3.392 0.321,5.042l0,31.35l-7.425,-0Z" style="fill:#fff;fill-rule:nonzero;"/><path d="M165.183,53.517c0,2.872 -0.32,5.683 -0.962,8.433c-0.642,2.75 -1.742,5.21 -3.3,7.379c-1.558,2.17 -3.652,3.911 -6.279,5.225c-2.628,1.314 -5.898,1.971 -9.809,1.971c-3.666,-0 -6.737,-0.626 -9.212,-1.879c-2.475,-1.253 -4.446,-2.918 -5.913,-4.996c-1.466,-2.078 -2.52,-4.492 -3.162,-7.242c-0.642,-2.75 -0.963,-5.652 -0.963,-8.708c0,-2.994 0.367,-5.897 1.1,-8.708c0.734,-2.811 1.895,-5.317 3.484,-7.517c1.589,-2.2 3.666,-3.972 6.233,-5.317c2.567,-1.344 5.683,-2.016 9.35,-2.016c3.728,-0 6.844,0.672 9.35,2.016c2.506,1.345 4.507,3.102 6.004,5.271c1.497,2.17 2.552,4.66 3.163,7.471c0.611,2.811 0.916,5.683 0.916,8.617Zm-7.791,0.183c-0,-2.017 -0.138,-4.064 -0.413,-6.142c-0.275,-2.077 -0.84,-3.987 -1.696,-5.729c-0.855,-1.742 -2.047,-3.162 -3.575,-4.262c-1.527,-1.1 -3.514,-1.65 -5.958,-1.65c-2.506,-0 -4.553,0.534 -6.142,1.604c-1.589,1.069 -2.841,2.444 -3.758,4.125c-0.917,1.68 -1.558,3.59 -1.925,5.729c-0.367,2.139 -0.55,4.247 -0.55,6.325c0,2.2 0.153,4.339 0.458,6.417c0.306,2.077 0.902,3.895 1.788,5.454c0.886,1.558 2.139,2.811 3.758,3.758c1.62,0.947 3.743,1.421 6.371,1.421c2.444,-0 4.415,-0.504 5.913,-1.513c1.497,-1.008 2.673,-2.337 3.529,-3.987c0.855,-1.65 1.436,-3.483 1.741,-5.5c0.306,-2.017 0.459,-4.033 0.459,-6.05Z" style="fill:#fff;fill-rule:nonzero;"/><path d="M195.342,67.725l3.666,-12.833l12.375,-41.892l8.067,-0l-19.892,62.792l-9.166,-0l-19.892,-62.792l8.25,-0l12.558,41.983l3.575,12.742l0.459,-0Z" style="fill:#fff;fill-rule:nonzero;"/><path d="M241.817,35.55c-2.139,-0 -3.942,0.397 -5.409,1.192c-1.466,0.794 -2.673,1.864 -3.62,3.208c-0.948,1.344 -1.65,2.903 -2.109,4.675c-0.458,1.772 -0.748,3.606 -0.871,5.5l22.825,-0c0,-2.139 -0.183,-4.11 -0.55,-5.913c-0.366,-1.802 -0.962,-3.345 -1.787,-4.629c-0.825,-1.283 -1.925,-2.276 -3.3,-2.979c-1.375,-0.703 -3.102,-1.054 -5.179,-1.054Zm-0.184,-5.5c2.995,-0 5.516,0.397 7.563,1.192c2.047,0.794 3.743,1.833 5.087,3.116c1.345,1.284 2.384,2.72 3.117,4.309c0.733,1.589 1.268,3.177 1.604,4.766c0.336,1.589 0.535,3.086 0.596,4.492c0.061,1.406 0.092,2.567 0.092,3.483l-0,3.575l-29.975,0c-0,2.078 0.183,4.079 0.55,6.004c0.366,1.925 1.039,3.621 2.016,5.088c0.978,1.467 2.292,2.628 3.942,3.483c1.65,0.856 3.728,1.284 6.233,1.284c2.628,-0 5.027,-0.275 7.196,-0.825c2.17,-0.55 4.538,-1.345 7.104,-2.384l1.834,4.767c-2.689,1.406 -5.393,2.444 -8.113,3.117c-2.719,0.672 -5.576,1.008 -8.571,1.008c-3.972,-0 -7.241,-0.611 -9.808,-1.833c-2.567,-1.223 -4.599,-2.888 -6.096,-4.996c-1.497,-2.109 -2.536,-4.553 -3.116,-7.334c-0.581,-2.78 -0.871,-5.729 -0.871,-8.845c-0,-1.345 0.091,-2.857 0.275,-4.538c0.183,-1.68 0.534,-3.376 1.054,-5.087c0.519,-1.711 1.237,-3.407 2.154,-5.088c0.917,-1.68 2.108,-3.162 3.575,-4.446c1.467,-1.283 3.224,-2.322 5.271,-3.116c2.047,-0.795 4.476,-1.192 7.287,-1.192Z" style="fill:#fff;fill-rule:nonzero;"/><path d="M277.842,37.383c1.1,-0.977 2.322,-1.909 3.666,-2.796c1.345,-0.886 2.72,-1.665 4.125,-2.337c1.406,-0.672 2.781,-1.222 4.125,-1.65c1.345,-0.428 2.598,-0.642 3.759,-0.642c0.672,0 1.222,0.153 1.65,0.459c0.427,0.305 0.641,0.916 0.641,1.833c0,0.367 -0.076,0.856 -0.229,1.467c-0.153,0.611 -0.336,1.237 -0.55,1.879c-0.214,0.641 -0.473,1.268 -0.779,1.879c-0.306,0.611 -0.642,1.131 -1.008,1.558c-2.567,0.306 -5.149,0.627 -7.746,0.963c-2.597,0.336 -5.179,0.657 -7.746,0.962l0,34.834l-7.517,-0l0,-44.734l7.334,0l-0.275,5.959l0.55,0.366Z" style="fill:#fff;fill-rule:nonzero;"/><path d="M302.042,67.908c2.872,1.284 5.5,2.109 7.883,2.475c2.383,0.367 4.369,0.55 5.958,0.55c1.406,0 2.735,-0.122 3.988,-0.366c1.253,-0.245 2.337,-0.642 3.254,-1.192c0.917,-0.55 1.635,-1.283 2.154,-2.2c0.52,-0.917 0.779,-2.047 0.779,-3.392c0,-1.161 -0.259,-2.154 -0.779,-2.979c-0.519,-0.825 -1.222,-1.528 -2.108,-2.108c-0.886,-0.581 -1.91,-1.085 -3.071,-1.513c-1.161,-0.427 -2.383,-0.855 -3.667,-1.283c-1.955,-0.672 -3.834,-1.36 -5.637,-2.063c-1.803,-0.702 -3.407,-1.527 -4.813,-2.475c-1.405,-0.947 -2.536,-2.108 -3.391,-3.483c-0.856,-1.375 -1.284,-3.101 -1.284,-5.179c0,-2.139 0.428,-4.003 1.284,-5.592c0.855,-1.589 2.016,-2.902 3.483,-3.941c1.467,-1.039 3.178,-1.803 5.133,-2.292c1.956,-0.489 4.064,-0.733 6.325,-0.733c0.917,-0 1.956,0.061 3.117,0.183c1.161,0.122 2.338,0.306 3.529,0.55c1.192,0.244 2.368,0.565 3.529,0.962c1.161,0.398 2.231,0.902 3.209,1.513l-2.292,5.225c-2.322,-0.917 -4.369,-1.543 -6.142,-1.879c-1.772,-0.336 -3.452,-0.504 -5.041,-0.504c-1.161,-0 -2.292,0.107 -3.392,0.32c-1.1,0.214 -2.063,0.581 -2.887,1.1c-0.825,0.52 -1.498,1.207 -2.017,2.063c-0.52,0.856 -0.779,1.894 -0.779,3.117c-0,0.977 0.321,1.833 0.962,2.566c0.642,0.734 1.452,1.375 2.429,1.925c0.978,0.55 2.017,1.024 3.117,1.421c1.1,0.397 2.108,0.749 3.025,1.054c1.894,0.611 3.758,1.238 5.592,1.879c1.833,0.642 3.483,1.467 4.95,2.475c1.466,1.009 2.643,2.262 3.529,3.759c0.886,1.497 1.329,3.437 1.329,5.821c0,2.261 -0.443,4.201 -1.329,5.82c-0.886,1.62 -2.108,2.949 -3.667,3.988c-1.558,1.039 -3.422,1.803 -5.591,2.292c-2.17,0.489 -4.538,0.733 -7.105,0.733c-1.344,-0 -2.734,-0.076 -4.17,-0.229c-1.437,-0.153 -2.857,-0.367 -4.263,-0.642c-1.406,-0.275 -2.765,-0.642 -4.079,-1.1c-1.314,-0.458 -2.46,-0.962 -3.438,-1.512l2.384,-5.134Z" style="fill:#fff;fill-rule:nonzero;"/><path d="M361.167,35.55c-2.139,-0 -3.942,0.397 -5.409,1.192c-1.466,0.794 -2.673,1.864 -3.62,3.208c-0.948,1.344 -1.65,2.903 -2.109,4.675c-0.458,1.772 -0.748,3.606 -0.871,5.5l22.825,-0c0,-2.139 -0.183,-4.11 -0.55,-5.913c-0.366,-1.802 -0.962,-3.345 -1.787,-4.629c-0.825,-1.283 -1.925,-2.276 -3.3,-2.979c-1.375,-0.703 -3.102,-1.054 -5.179,-1.054Zm-0.184,-5.5c2.995,-0 5.516,0.397 7.563,1.192c2.047,0.794 3.743,1.833 5.087,3.116c1.345,1.284 2.384,2.72 3.117,4.309c0.733,1.589 1.268,3.177 1.604,4.766c0.336,1.589 0.535,3.086 0.596,4.492c0.061,1.406 0.092,2.567 0.092,3.483l-0,3.575l-29.975,0c-0,2.078 0.183,4.079 0.55,6.004c0.366,1.925 1.039,3.621 2.016,5.088c0.978,1.467 2.292,2.628 3.942,3.483c1.65,0.856 3.728,1.284 6.233,1.284c2.628,-0 5.027,-0.275 7.196,-0.825c2.17,-0.55 4.538,-1.345 7.104,-2.384l1.834,4.767c-2.689,1.406 -5.393,2.444 -8.113,3.117c-2.719,0.672 -5.576,1.008 -8.571,1.008c-3.972,-0 -7.241,-0.611 -9.808,-1.833c-2.567,-1.223 -4.599,-2.888 -6.096,-4.996c-1.497,-2.109 -2.536,-4.553 -3.116,-7.334c-0.581,-2.78 -0.871,-5.729 -0.871,-8.845c-0,-1.345 0.091,-2.857 0.275,-4.538c0.183,-1.68 0.534,-3.376 1.054,-5.087c0.519,-1.711 1.237,-3.407 2.154,-5.088c0.917,-1.68 2.108,-3.162 3.575,-4.446c1.467,-1.283 3.224,-2.322 5.271,-3.116c2.047,-0.795 4.476,-1.192 7.287,-1.192Z" style="fill:#fff;fill-rule:nonzero;"/></svg>